<mxfile host="app.diagrams.net" modified="2023-01-25T00:37:10.279Z" agent="5.0 (Windows NT 10.0; Win64; x64) AppleWebKit/537.36 (KHTML, like Gecko) Chrome/109.0.0.0 Safari/537.36" etag="9HvSVlGKPB8n5gnUeCe1" version="20.8.11" type="github">
  <diagram name="페이지-1" id="ET_IXqiL8paaCJdDg8Ob">
    <mxGraphModel dx="1434" dy="764" grid="1" gridSize="10" guides="1" tooltips="1" connect="1" arrows="1" fold="1" page="1" pageScale="1" pageWidth="827" pageHeight="1169" math="0" shadow="0">
      <root>
        <mxCell id="0" />
        <mxCell id="1" parent="0" />
        <mxCell id="bZJCm8ObWjptkRy7P8Bq-1" value="이메일 작성 화면&lt;br&gt;emailForm.jsp" style="rounded=1;whiteSpace=wrap;html=1;fillColor=#dae8fc;strokeColor=#6c8ebf;" vertex="1" parent="1">
          <mxGeometry x="40" y="40" width="120" height="80" as="geometry" />
        </mxCell>
        <mxCell id="bZJCm8ObWjptkRy7P8Bq-2" value="이메일 전송 처리&lt;br&gt;emailCheck.jsp" style="rounded=1;whiteSpace=wrap;html=1;fillColor=#dae8fc;strokeColor=#6c8ebf;" vertex="1" parent="1">
          <mxGeometry x="200" y="40" width="120" height="80" as="geometry" />
        </mxCell>
        <mxCell id="bZJCm8ObWjptkRy7P8Bq-3" value="" style="endArrow=classic;html=1;rounded=0;entryX=0;entryY=0.5;entryDx=0;entryDy=0;exitX=1;exitY=0.5;exitDx=0;exitDy=0;" edge="1" parent="1" source="bZJCm8ObWjptkRy7P8Bq-1" target="bZJCm8ObWjptkRy7P8Bq-2">
          <mxGeometry width="50" height="50" relative="1" as="geometry">
            <mxPoint x="160" y="80" as="sourcePoint" />
            <mxPoint x="210" y="30" as="targetPoint" />
          </mxGeometry>
        </mxCell>
        <mxCell id="bZJCm8ObWjptkRy7P8Bq-4" value="네이버 SMTP 서버&lt;br&gt;NaverSMTP.java" style="rounded=1;whiteSpace=wrap;html=1;fillColor=#d5e8d4;strokeColor=#82b366;" vertex="1" parent="1">
          <mxGeometry x="360" y="40" width="120" height="80" as="geometry" />
        </mxCell>
        <mxCell id="bZJCm8ObWjptkRy7P8Bq-5" value="" style="endArrow=classic;html=1;rounded=0;entryX=0;entryY=0.5;entryDx=0;entryDy=0;exitX=1;exitY=0.5;exitDx=0;exitDy=0;" edge="1" parent="1" target="bZJCm8ObWjptkRy7P8Bq-4" source="bZJCm8ObWjptkRy7P8Bq-2">
          <mxGeometry width="50" height="50" relative="1" as="geometry">
            <mxPoint x="320" y="80" as="sourcePoint" />
            <mxPoint x="370" y="30" as="targetPoint" />
          </mxGeometry>
        </mxCell>
        <mxCell id="bZJCm8ObWjptkRy7P8Bq-6" value="" style="verticalLabelPosition=bottom;verticalAlign=top;html=1;shape=mxgraph.basic.6_point_star;fillColor=#f8cecc;strokeColor=#b85450;" vertex="1" parent="1">
          <mxGeometry x="560" y="35" width="100" height="90" as="geometry" />
        </mxCell>
        <mxCell id="bZJCm8ObWjptkRy7P8Bq-7" value="인터넷" style="text;html=1;align=center;verticalAlign=middle;resizable=0;points=[];autosize=1;strokeColor=none;fillColor=none;" vertex="1" parent="1">
          <mxGeometry x="580" y="125" width="60" height="30" as="geometry" />
        </mxCell>
        <mxCell id="bZJCm8ObWjptkRy7P8Bq-8" value="" style="endArrow=classic;html=1;rounded=0;exitX=1;exitY=0.5;exitDx=0;exitDy=0;entryX=0;entryY=0.5;entryDx=0;entryDy=0;entryPerimeter=0;" edge="1" parent="1" source="bZJCm8ObWjptkRy7P8Bq-4" target="bZJCm8ObWjptkRy7P8Bq-6">
          <mxGeometry width="50" height="50" relative="1" as="geometry">
            <mxPoint x="390" y="210" as="sourcePoint" />
            <mxPoint x="440" y="160" as="targetPoint" />
          </mxGeometry>
        </mxCell>
      </root>
    </mxGraphModel>
  </diagram>
</mxfile>
